<svg class="icon" viewBox="0 0 1024 1024" xmlns="http://www.w3.org/2000/svg" width="64" height="64"><defs><style/></defs><path d="M389.27 577.044c0 51.396-15.104 93.109-33.749 93.109-18.634 0-33.737-41.712-33.737-93.109 0-51.424 15.104-93.108 33.737-93.108 18.646 0 33.749 41.684 33.749 93.108zM705.821 577.044c0 51.396-15.116 93.109-33.748 93.109-18.645 0-33.738-41.712-33.738-93.109 0-51.424 15.093-93.108 33.738-93.108 18.631 0 33.748 41.684 33.748 93.108z"/><path d="M512.64 125.505c-212.107 0-384.05 171.906-384.05 384.04 0 212.081 171.943 384.037 384.05 384.037 212.095 0 384.025-171.956 384.025-384.037 0-212.134-171.93-384.04-384.024-384.04zm0 723.86c-157.746 0-289.984-107.625-328.31-253.33-18.503-141.798 70.043-160.277 70.043-160.277 51.678 6.186 47.538 47.537 47.538 47.537 70.287-37.187 57.89-101.287 57.89-101.287 84.764-6.21 76.497 86.848 76.497 86.848 86.835-24.818 76.507-122.015 76.507-122.015 90.95 22.746 43.398 132.314 43.398 132.314 119.908-30.977 119.908-99.242 119.908-99.242 76.48 45.52 47.564 113.71 47.564 113.71 43.409-8.257 64.087-43.424 64.087-43.424 44.432 14.544 59.153 58.732 61.2 105.608-22.646 165.718-164.38 293.559-336.321 293.559z"/></svg>