<?xml version="1.0" standalone="no"?><!DOCTYPE svg PUBLIC "-//W3C//DTD SVG 1.1//EN" "http://www.w3.org/Graphics/SVG/1.1/DTD/svg11.dtd"><svg t="1573119245683" class="icon" viewBox="0 0 1228 1024" version="1.1" xmlns="http://www.w3.org/2000/svg" p-id="1608" xmlns:xlink="http://www.w3.org/1999/xlink" width="359.765625" height="300"><defs><style type="text/css"></style></defs><path d="M36.522667 39.7312H1194.666667v954.641067H36.522667V39.7312z m333.960533 340.7872a203.093333 203.093333 0 0 0-144.7936 60.0064 203.9808 203.9808 0 0 0-60.0064 144.7936 203.093333 203.093333 0 0 0 60.0064 144.7936 203.9808 203.9808 0 0 0 144.7936 60.074667c21.367467 0 42.120533-3.2768 62.395733-9.693867 15.701333-5.051733 30.788267-11.946667 45.192534-20.753067v27.579734h97.211733V381.3376H478.071467v29.559467a209.7152 209.7152 0 0 0-45.192534-20.753067 206.0288 206.0288 0 0 0-62.395733-9.557333zM446.464 509.3376c21.0944 21.026133 31.607467 46.421333 31.607467 75.9808 0 29.627733-10.513067 54.954667-31.607467 75.9808-21.026133 20.821333-46.421333 31.197867-75.9808 31.197867-29.627733 0-54.954667-10.376533-75.9808-31.197867a104.311467 104.311467 0 0 1-31.197867-75.9808c0-29.627733 10.376533-54.954667 31.197867-75.9808 21.026133-21.0944 46.421333-31.607467 75.9808-31.607467 29.627733 0 54.954667 10.513067 75.9808 31.607467z m331.229867-81.237333c-14.404267 4.573867-27.989333 10.8544-40.823467 18.8416V216.132267H648.533333v572.0064h88.405334v-24.849067a184.593067 184.593067 0 0 0 97.211733 27.579733c51.473067 0 95.368533-18.090667 131.618133-54.340266a178.858667 178.858667 0 0 0 54.408534-131.208534c0-51.473067-18.158933-95.300267-54.408534-131.618133a179.268267 179.268267 0 0 0-131.618133-54.408533c-19.182933 0-38.024533 2.935467-56.388267 8.874666z m56.388266 79.598933c26.965333 0 50.039467 9.489067 69.2224 28.398933 18.909867 19.2512 28.398933 42.325333 28.398934 69.2224 0 26.624-9.489067 49.629867-28.398934 68.8128-19.182933 18.909867-42.325333 28.398933-69.2224 28.398934-26.624 0-49.5616-9.489067-68.8128-28.398934a94.549333 94.549333 0 0 1-28.398933-68.8128c0-26.897067 9.489067-49.9712 28.398933-69.2224a94.549333 94.549333 0 0 1 68.8128-28.398933z" fill="#333333" p-id="1609"></path></svg>