<?xml version="1.0" standalone="no"?><!DOCTYPE svg PUBLIC "-//W3C//DTD SVG 1.1//EN" "http://www.w3.org/Graphics/SVG/1.1/DTD/svg11.dtd"><svg t="1571276710828" class="icon" viewBox="0 0 1024 1024" version="1.1" xmlns="http://www.w3.org/2000/svg" p-id="4743" xmlns:xlink="http://www.w3.org/1999/xlink" width="64" height="64"><defs><style type="text/css"></style></defs><path d="M529.312 524.032c-6.592 8.896-13.024 16.192-16.256 19.872a2.88 2.88 0 0 1-1.824 0.736 2.4 2.4 0 0 1-1.696-0.736 262.848 262.848 0 0 1-16.448-19.84c-28.448 2.432-49.504 10.336-49.504 19.68 0 11.52 30.368 20.672 67.616 20.672 37.408 0 67.648-9.12 67.648-20.672 0.032-9.344-20.96-17.28-49.536-19.712z m-18.08-28.8a25.28 25.28 0 0 0 0-50.496 25.28 25.28 0 0 0-25.344 25.248 25.376 25.376 0 0 0 25.344 25.248z m0-84.128a100.96 100.96 0 1 0 0.032 201.824 100.96 100.96 0 0 0-0.032-201.824z m0 154.88c-40.096 0-72.576-9.92-72.576-22.208 0-10.112 22.656-18.592 53.312-21.184l-1.28-1.632c-9.6-13.376-20.928-33.024-20.928-50.528a41.44 41.44 0 0 1 82.944 0c0 17.472-11.36 37.12-20.96 50.432-0.448 0.64-0.864 1.088-1.344 1.696 30.752 2.592 53.536 11.04 53.536 21.184 0.032 12.32-32.608 22.24-72.704 22.24z" p-id="4744"></path><path d="M377.152 769.12c3.776-9.44-3.904-18.432-12.64-18.432-1.28 0.544-2.816 0.416-3.968 1.056a13.856 13.856 0 0 0-8 8.672c-2.656 8.608 5.024 19.168 13.632 17.696a13.344 13.344 0 0 0 10.976-8.992z m348.96-343.232v2.56h6.592v3.648h-6.592v2.656h6.592v5.216H736v-5.216h6.336v-2.656H736v-3.648h6.336v-2.56h-5.504l7.008-11.872h-3.488l-3.936 7.328c-0.992 1.952-1.728 3.232-1.888 3.872h-0.192a157.856 157.856 0 0 0-5.824-11.2h-3.616l6.848 11.872h-5.632zM444.896 197.76a51.936 51.936 0 0 0-34.56-13.088h-0.16a51.2 51.2 0 0 0-35.424 14.016l35.424 35.552 34.72-36.48z m-34.688 91.232c27.392 0 50.208-21.312 52.032-48.64v0.128c0.224-1.152 0.224-2.336 0.224-3.36l-52.096 1.472a2.88 2.88 0 0 1-0.576-0.064l0.128 0.064-0.32-0.064h0.16c-0.256-0.032-0.576-0.096-0.704-0.352L372.096 201.28c-8.736 9.28-14.08 21.696-14.08 35.424v0.16c0 28.768 23.36 52.128 52.192 52.128z m56.512 447.2c7.456-1.184 7.296-12.608-0.832-12.48-2.432 1.12-4.224 1.536-5.088 4.16-1.216 4 2.144 8.8 5.92 8.32z m187.424-22.432c0.16-0.448-2.08-0.448-2.976-0.448-1.088-0.352-1.632-0.352-2.688-0.672-0.32 0.576-0.768 0.96-1.12 1.536 2.368-0.064 4.416-0.064 6.528-0.032a2.656 2.656 0 0 0 0.256-0.384z m17.408-458.08a19.008 19.008 0 0 0-18.944 18.912c0 10.336 8.512 18.848 18.944 18.848 10.24 0 18.752-8.544 18.752-18.848a18.944 18.944 0 0 0-18.752-18.912z m0 28.32a9.312 9.312 0 0 1-9.408-9.408 9.344 9.344 0 1 1 18.72 0 9.376 9.376 0 0 1-9.312 9.408z m-70.72-18.88c23.488 0 42.336-18.752 42.336-42.4s-18.848-42.528-42.336-42.528c-23.744 0-42.592 18.88-42.592 42.528s18.848 42.4 42.592 42.4z m0-75.36c17.888 0 32.896 15.04 32.896 32.96 0 17.888-15.04 32.96-32.896 32.96a33.472 33.472 0 0 1-33.184-32.96c0-17.92 15.104-32.96 33.184-32.96z m0 56.576a23.424 23.424 0 0 0 23.488-23.616 23.424 23.424 0 0 0-23.488-23.616 23.456 23.456 0 0 0-23.744 23.616c0 13.152 10.432 23.616 23.744 23.616z m0-37.792a14.176 14.176 0 1 1-0.16 28.32 14.176 14.176 0 0 1 0.16-28.32z m-89.664-71.456C304.192 137.088 136.32 304.992 136.32 511.936c0 207.008 167.872 374.848 374.848 374.848 206.944 0 374.848-167.84 374.848-374.848 0-206.944-167.936-374.848-374.848-374.848z m308.32 217.664c0-1.984 1.888-3.744 3.84-3.744h9.984c1.984 0 3.328 1.824 3.328 3.744v22.4l-6.688 0.32-10.432-8.096v-14.624z m-27.264-21.408c0-1.984 2.112-2.72 3.808-2.72h10.08c1.984 0 3.168 0.736 3.168 2.72v28.096l-10.272-7.872-6.784 10.048v-30.272z m-27.392 43.488c0-2.08 2.336-3.008 4.32-3.008h9.984c2.016 0 3.968 1.024 3.968 3.008v2.304l-12.416 17.888-5.856-2.464v-17.728z m-26.176-12.672c0-1.952 1.504-2.848 3.36-2.848h10.048c1.888 0 3.616 0.928 3.616 2.848v24.992l-9.44-4.704-7.616 4.704v-24.992z m-137.824-193.312c28.16 0 51.776 23.616 51.776 51.872s-23.616 51.872-51.776 51.872c-28.416 0-51.872-23.616-51.872-51.872s23.488-51.872 51.872-51.872z m-232.672 23.84a59.008 59.008 0 0 1 42.016-17.472h0.16c12.512 0 24.064 3.904 33.312 10.272 16.448 11.104 26.24 29.6 26.016 49.28v4.128a59.744 59.744 0 0 1-59.488 55.552 59.68 59.68 0 0 1-59.616-59.584c0.032-15.904 6.336-30.88 17.6-42.176zM217.536 667.904H201.28v-33.792h16.256v33.792z m27.008 0h-16.288v-49.792h16.288v49.792z m30.144 0h-16.064v-62.304h16.064v62.304z m29.344 0h-16.288v-80.416h16.288v80.416zM302.208 572.8l-12.096-11.104-37.792 38.368-15.744-13.792-38.944 39.104-6.624-6.176 45.28-45.408 15.584 13.984 31.648-32.256-11.264-10.4 36.288-7.968-6.336 35.648z m18.016-110.88H201.12a2.88 2.88 0 0 1-2.976-2.88v-119.232c0-1.568 1.28-2.88 2.976-2.88 1.504 0 2.816 1.344 2.816 2.88v116.224h116.288c1.664 0 3.04 1.312 3.04 3.008 0.032 1.6-1.344 2.88-3.04 2.88z m-3.968-94.016l-12.736 37.76a7.808 7.808 0 1 1-13.44 5.408c0-0.256 0-0.512 0.16-0.736l-16.448-14.56a7.04 7.04 0 0 1-3.264 0.704l-9.792 26.368a8.128 8.128 0 0 1 1.952 5.216 7.744 7.744 0 1 1-15.488 0 10.56 10.56 0 0 1 0.288-2.304l-4.096-3.392a8.192 8.192 0 0 1-4.192 1.28c-0.672 0-1.28-0.192-1.824-0.352l-16.192 16.576c0.608 1.152 0.96 2.496 0.96 3.872a7.872 7.872 0 0 1-7.84 7.904 7.872 7.872 0 0 1-7.744-7.904 7.776 7.776 0 0 1 9.952-7.456l16.064-16.576a7.68 7.68 0 0 1 6.624-11.744c4.512 0 8 3.424 8 7.776 0 0.64-0.224 1.312-0.384 1.888l4.48 3.68a6.464 6.464 0 0 1 3.648-1.024c0.16 0 0.32 0.096 0.544 0.096l9.568-26.112a7.552 7.552 0 0 1-2.368-5.536c0-4.288 3.52-7.904 7.84-7.904a7.904 7.904 0 0 1 7.296 10.688l15.232 13.536a7.136 7.136 0 0 1 4.832-1.856h0.384l12.384-36.832a7.872 7.872 0 0 1-3.104-6.176c0-4.32 3.392-7.808 7.744-7.808 4.32 0 8 3.488 8 7.808a7.904 7.904 0 0 1-7.04 7.712z m48.768 443.264c-2.496-3.808-4.992-7.392-7.424-11.232-4.896-6.752-9.28-13.76-13.792-20.96-3.648-6.176-6.144-15.296-2.816-24.096 1.44-3.776 3.648-6.4 5.792-9.44a22.944 22.944 0 0 1 11.264-7.296c1.536-0.384 3.808-0.192 5.344-0.672 19.04-0.32 31.488 15.616 25.344 35.104-2.816 8.672-7.168 13.984-11.936 20.416-2.304 3.456-4.512 7.072-6.784 10.752-1.504 2.496-3.104 5.056-4.64 7.68l-0.352-0.256z m116-16.864c-12.48 2.144-24.704 4.192-37.12 6.272-8.672 1.536-17.408 3.168-26.24 4.672-16.032 3.552-32.48 6.176-48.384 9.856l0.16-0.384c4.64-7.808 9.28-15.616 14.144-23.552 1.472-0.416 3.136-0.544 4.64-0.672 3.264-0.704 6.624-0.832 10.016-1.312l8.672-0.416c14.368-0.96 28.672-1.952 42.88-2.752l-0.16-0.128c-6.016-4.672-11.776-9.312-17.728-13.984-4.64-3.296-9.952-5.792-14.752-8.992-4.512-3.392-8.96-6.944-13.472-10.4 9.984-0.768 19.936-1.856 29.824-2.816 3.488-0.48 6.976 0 10.336-0.672 4.256-0.16 8.608-0.352 12.864-0.608 1.216 0 2.368-0.416 3.52-0.416a22.4 22.4 0 0 1 3.776 4.352c-4.768 0.704-9.44 1.088-14.208 1.696-9.12 1.664-18.24 1.664-26.976 3.456l0.128 0.16c1.856 1.824 4.64 2.944 6.976 4.256 4.256 2.56 8.736 4.832 13.088 7.328 2.304 1.504 4.416 2.976 6.624 4.608 6.656 4.192 13.088 8.352 19.552 12.672 3.968 2.624 7.744 5.12 11.776 7.616v0.16z m-25.568-68.928c0.704-1.504 1.696-2.816 2.656-4.224a12.928 12.928 0 0 1 5.344-3.2c0.448 0 1.184 0 1.6-0.352 8.448 0 14.912 6.624 12.064 15.328-1.28 4.672-3.776 7.488-6.08 10.848a131.84 131.84 0 0 0-4.64 7.296c-1.344-2.016-2.656-3.872-3.776-5.664-1.984-3.008-3.808-5.984-5.888-8.896a13.696 13.696 0 0 1-1.28-11.136z m-106.016-213.44c0-89.312 72.448-161.536 161.728-161.536s161.728 72.32 161.728 161.632c0 89.248-72.448 161.536-161.728 161.536s-161.728-72.288-161.728-161.632z m276.032 232.128c-2.432 1.728-4.928 3.168-7.424 4.672-29.152 16.928-54.304 13.12-63.808 13.664 0 0 66.208-1.856 93.152-48.192-0.992 0-1.856 0-3.2 0.096-2.144 0-4.096 0.128-6.016 0-0.544 0-1.024-0.32-0.544-0.672 0.352-0.672 0.928-0.96 1.504-1.312l0.128-0.128c0.672-0.608 11.808-11.296 12.096-11.296 0.832 0 10.432 11.392 11.776 12.416 0.32 0.32 0.64 0.832 0 0.832h-9.216c-2.048 4.992-7.136 11.04-10.56 14.88a91.968 91.968 0 0 1-17.888 15.04z m6.304 7.808v46.912c0 1.28-0.32 1.824-0.8 1.824h-4.48c-0.288 0-0.672-0.544-0.672-1.824v-46.912c0-1.44 0.384-1.792 0.672-1.792h4.608c0.352 0 0.672 0.352 0.672 1.792z m-33.024 12.8v33.984c0 1.12-0.288 1.984-0.608 1.984h-4.64c-0.384 0-0.672-0.832-0.672-1.984v-33.984c0-0.96 0.32-2.016 0.672-2.016h4.64c0.32-0.032 0.608 1.024 0.608 2.016z m-30.944 11.936v22.752c0 0.608-0.448 1.248-0.8 1.248h-4.544c-0.448 0-0.8-0.672-0.8-1.248v-22.752c0-0.704 0.384-1.312 0.8-1.312h4.544c0.352 0 0.8 0.576 0.8 1.312z m91.808-49.536c0-2.208 0.288-2.208 0.672-2.208h4.672c0.288 0 0.608 0 0.608 2.208v71.424c0 2.08-0.32 2.08-0.608 2.08h-4.672c-0.416 0-0.672 0-0.672-2.08v-71.424z m-106.976 81.984v-4.48c0-0.448-0.256-0.832 1.6-0.832h99.456c3.584 0 20.352 0.416 21.376 0.416 0.16 2.944 0.16 2.944 0.16 4.896H552.64z m118.912-506.24a27.744 27.744 0 0 1-28.384-28.224c0-16 12.256-28.256 28.384-28.256 15.904 0 28.128 12.224 28.128 28.256a27.68 27.68 0 0 1-28.128 28.224z m9.312-75.392a18.816 18.816 0 0 1 0-37.664 18.816 18.816 0 0 1 0 37.664z m28.992 198.688V425.6c0-6.528 2.656-12.512 6.752-16.896a26.72 26.72 0 0 1 6.464-5.056 24.736 24.736 0 1 1-13.216 22.464z m45.216-18.944l0.672 0.32v0.64c-0.256-0.32-0.416-0.672-0.672-0.96z m18.176 158.752v57.952h-57.952a58.016 58.016 0 0 1 57.952-57.952z m2.4 116.544a54.208 54.208 0 0 1-54.176-50.688h57.792v-57.888a54.304 54.304 0 0 1 50.688 54.176c0 30.208-24.352 54.4-54.304 54.4z m67.744-244.928h-83.904c1.056-2.432 1.312-5.216 1.696-7.968h82.208v7.968z m-78.56-13.664v-11.2l9.408 4.64 8.832-12.064v18.624h-18.24z m27.392 0v-33.888l9.568-14.336 7.488 5.536v42.656h-17.056z m27.264 0v-34.72l6.656 4.896 10.464-0.416v30.208h-17.12z m8.352-36.192l-26.208-19.904-27.968 42.08-27.008-13.76-3.008 1.824c-1.92-0.832-4.16-0.896-6.24-1.312l8.864-5.568 25.888 13.184 28.352-42.944 28.96 22.304 13.952-0.64v4l-15.584 0.736zM462.464 235.168a52.672 52.672 0 0 0-14.976-34.912L414.688 234.88l47.776 0.288z m322.272 344.864v57.184h-57.216a49.152 49.152 0 0 0 48.128 39.808c26.976 0 48.864-22.08 48.864-48.928a49.12 49.12 0 0 0-39.776-48.064z" p-id="4745"></path><path d="M511.168 2.816a25.184 25.184 0 0 0-25.184 25.184v386.528a99.84 99.84 0 0 1 25.28-3.584c8.704 0 17.024 1.44 25.088 3.52V28a25.184 25.184 0 0 0-25.184-25.184z m-25.184 606.496v386.624c0 13.92 11.264 25.248 25.184 25.248s25.184-11.328 25.184-25.248V609.344c-8.064 2.08-16.384 3.52-25.088 3.52-8.8 0-17.184-1.472-25.28-3.552zM151.232 151.872a25.152 25.152 0 0 0 0 35.68l273.344 273.376a100.928 100.928 0 0 1 35.68-35.712L186.912 151.872a25.216 25.216 0 0 0-35.68 0z m720 684.352l-273.312-273.344a100.672 100.672 0 0 1-35.68 35.712l273.408 273.44c4.8 4.992 11.264 7.296 17.728 7.296s12.96-2.496 17.888-7.296a25.248 25.248 0 0 0-0.032-35.808zM424.448 562.944l-273.376 273.28a25.216 25.216 0 0 0 17.888 43.104 25.056 25.056 0 0 0 17.728-7.296l273.44-273.376a100.928 100.928 0 0 1-35.68-35.712zM871.232 151.968a25.056 25.056 0 0 0-35.584 0l-273.472 273.344a100.48 100.48 0 0 1 35.648 35.68l273.408-273.344a25.056 25.056 0 0 0 0-35.68zM413.824 486.784H27.168a25.12 25.12 0 0 0-25.024 25.152c0 13.952 11.264 25.216 25.024 25.216h386.688a101.024 101.024 0 0 1-3.552-25.248c0-8.704 1.44-17.056 3.52-25.12z m581.184 0H608.64c2.08 8.064 3.52 16.416 3.52 25.12 0 8.768-1.472 17.12-3.552 25.248h386.4a25.152 25.152 0 1 0 0-50.368z" p-id="4746"></path></svg>