<svg class="icon" viewBox="0 0 1024 1024" xmlns="http://www.w3.org/2000/svg" width="64" height="64"><defs><style/></defs><path d="M876.058 769.024c5.12 34.816 34.826 29.696 39.946 45.056 0 9.718-5.12 45.056-19.968 49.664-14.843 0-34.816-5.12-49.664 0-9.718 5.12-19.958 9.723-25.078 19.963-9.728 25.083 9.718 45.05 0 54.779-14.848 9.728-45.061 25.088-54.784 14.848-14.843-14.848-14.843-34.821-45.056-34.821-39.941 0-39.941 39.94-59.904 39.94s-54.784-14.847-54.784-29.7c5.12-19.963 14.848-34.811-5.12-54.78-25.088-19.967-54.779 0-65.019-9.727-14.843-9.728-19.963-34.816-14.843-49.66s39.936-14.842 39.936-54.788c0-29.691-34.816-34.811-39.936-54.774-5.12-14.848 5.12-39.946 19.963-45.066 25.083-9.718 39.931 9.728 65.02-9.718 14.847-14.838 9.727-49.664 9.727-59.904 5.12-14.843 25.078-19.963 39.936-19.963 29.696 0 19.963 34.821 59.904 39.941 39.936 0 34.816-14.848 54.779-39.94 25.083 0 45.061 9.722 49.659 19.962 9.728 19.968-9.718 49.664 19.968 69.637 25.078 14.843 49.664-5.12 65.024 0 9.723 5.12 14.843 19.963 19.963 39.941-9.723 29.164-54.79 24.044-49.67 69.11zm-179.702-99.84c-119.803 29.696-74.752 204.283 39.936 184.832 115.2-25.098 99.84-209.92-39.936-184.832zM492.068 494.597c-119.808 0-214.528-94.72-214.528-214.528S372.26 65.541 492.068 65.541c119.803 0 214.523 94.72 214.523 214.528.005 114.688-94.715 214.528-214.523 214.528zm174.592 49.659s-79.882 0-74.762 54.784c5.12 59.904-74.752 14.838-89.595 65.024-19.968 59.894 9.723 49.654 25.083 89.6 9.728 25.083-39.936 39.936-34.816 84.992 9.728 59.904 59.904 29.706 74.757 65.024 9.723 29.696-25.083 49.664-104.96 49.664-65.02 0-189.44 0-234.496-5.12 0 0-129.536-5.12-129.536-89.6 0 0-5.12-124.928 74.752-214.528 0 0 84.992-109.563 229.38-109.563l264.193 9.723z"/></svg>